<svg width="45" height="42" viewBox="0 0 45 42" fill="none" xmlns="http://www.w3.org/2000/svg">
<g id="Group 458">
<g id="Group 454">
<g id="Vector 12">
<path d="M36.6534 23.5386L44.5565 33.7989L29.166 32.1813L36.6534 23.5386Z" fill="#04A89E"/>
</g>
<g id="Group 450">
<g id="Ellipse 10" filter="url(#filter0_di_2_22022)">
<path d="M38.4963 17.8702C38.4963 13.4333 36.8273 9.15867 33.8208 5.89562C30.8143 2.63257 26.6903 0.619856 22.2682 0.257329C17.8461 -0.105197 13.4494 1.20899 9.95165 3.93882C6.45386 6.66865 4.11093 10.6143 3.3883 14.992C2.66567 19.3698 3.61623 23.8591 6.05114 27.5682C8.48604 31.2774 12.2271 33.9349 16.5311 35.0128C20.8352 36.0907 25.3872 35.5101 29.2829 33.3864C33.1785 31.2627 36.1328 27.7513 37.5588 23.5497L31.6763 21.5533C30.7516 24.2779 28.8358 26.555 26.3095 27.9322C23.7832 29.3094 20.8313 29.6858 18.0403 28.9868C15.2492 28.2878 12.8232 26.5645 11.2442 24.1592C9.66519 21.7539 9.04877 18.8426 9.51738 16.0038C9.98599 13.1649 11.5053 10.6062 13.7736 8.83596C16.0418 7.06572 18.893 6.21349 21.7607 6.44859C24.6283 6.68368 27.3026 7.98888 29.2523 10.1049C31.2019 12.2209 32.2843 14.9929 32.2843 17.8702H38.4963Z" fill="#05BEB3"/>
</g>
<g id="Ellipse 13" filter="url(#filter1_di_2_22022)">
<path d="M38.4963 17.8702C38.4963 14.04 37.2519 10.3136 34.9505 7.25189C32.6491 4.19022 29.4153 1.95912 25.7361 0.894554C22.0568 -0.170009 18.1313 -0.0104046 14.5506 1.34933C10.9699 2.70907 7.92795 5.19533 5.88272 8.43373C3.83748 11.6721 2.89973 15.4873 3.21067 19.3049C3.52162 23.1224 5.06442 26.7356 7.60676 29.6003C10.1491 32.465 13.5533 34.4262 17.3069 35.1886C21.0604 35.951 24.96 35.4732 28.4185 33.8273L26.6984 30.213C24.0233 31.4861 21.0069 31.8556 18.1036 31.266C15.2002 30.6763 12.567 29.1593 10.6005 26.9434C8.63405 24.7276 7.44069 21.9328 7.20018 18.9799C6.95967 16.0271 7.68502 13.076 9.26701 10.5711C10.849 8.06621 13.202 6.14309 15.9716 5.09133C18.7413 4.03957 21.7777 3.91612 24.6236 4.73956C27.4695 5.563 29.9708 7.28875 31.7509 9.65695C33.531 12.0251 34.4936 14.9076 34.4936 17.8702H38.4963Z" fill="url(#paint0_radial_2_22022)"/>
</g>
<circle id="Ellipse 11" cx="16.2297" cy="18.2235" r="1.7678" fill="url(#paint1_radial_2_22022)"/>
<circle id="Ellipse 12" cx="21.0886" cy="18.2235" r="1.7678" fill="url(#paint2_radial_2_22022)"/>
<circle id="Ellipse 14" cx="26.1267" cy="18.2235" r="1.7678" fill="url(#paint3_radial_2_22022)"/>
</g>
</g>
</g>
<defs>
<filter id="filter0_di_2_22022" x="0.324828" y="0.198242" width="40.9988" height="40.999" filterUnits="userSpaceOnUse" color-interpolation-filters="sRGB">
<feFlood flood-opacity="0" result="BackgroundImageFix"/>
<feColorMatrix in="SourceAlpha" type="matrix" values="0 0 0 0 0 0 0 0 0 0 0 0 0 0 0 0 0 0 127 0" result="hardAlpha"/>
<feOffset dy="2.82752"/>
<feGaussianBlur stdDeviation="1.41376"/>
<feComposite in2="hardAlpha" operator="out"/>
<feColorMatrix type="matrix" values="0 0 0 0 0 0 0 0 0 0 0 0 0 0 0 0 0 0 0.25 0"/>
<feBlend mode="normal" in2="BackgroundImageFix" result="effect1_dropShadow_2_22022"/>
<feBlend mode="normal" in="SourceGraphic" in2="effect1_dropShadow_2_22022" result="shape"/>
<feColorMatrix in="SourceAlpha" type="matrix" values="0 0 0 0 0 0 0 0 0 0 0 0 0 0 0 0 0 0 127 0" result="hardAlpha"/>
<feOffset dx="1.41376" dy="2.82752"/>
<feGaussianBlur stdDeviation="1.41376"/>
<feComposite in2="hardAlpha" operator="arithmetic" k2="-1" k3="1"/>
<feColorMatrix type="matrix" values="0 0 0 0 0 0 0 0 0 0 0 0 0 0 0 0 0 0 0.15 0"/>
<feBlend mode="normal" in2="shape" result="effect2_innerShadow_2_22022"/>
</filter>
<filter id="filter1_di_2_22022" x="0.324828" y="0.198242" width="40.9988" height="40.999" filterUnits="userSpaceOnUse" color-interpolation-filters="sRGB">
<feFlood flood-opacity="0" result="BackgroundImageFix"/>
<feColorMatrix in="SourceAlpha" type="matrix" values="0 0 0 0 0 0 0 0 0 0 0 0 0 0 0 0 0 0 127 0" result="hardAlpha"/>
<feOffset dy="2.82752"/>
<feGaussianBlur stdDeviation="1.41376"/>
<feComposite in2="hardAlpha" operator="out"/>
<feColorMatrix type="matrix" values="0 0 0 0 0 0 0 0 0 0 0 0 0 0 0 0 0 0 0.25 0"/>
<feBlend mode="normal" in2="BackgroundImageFix" result="effect1_dropShadow_2_22022"/>
<feBlend mode="normal" in="SourceGraphic" in2="effect1_dropShadow_2_22022" result="shape"/>
<feColorMatrix in="SourceAlpha" type="matrix" values="0 0 0 0 0 0 0 0 0 0 0 0 0 0 0 0 0 0 127 0" result="hardAlpha"/>
<feOffset dx="1.41376" dy="2.82752"/>
<feGaussianBlur stdDeviation="0.706879"/>
<feComposite in2="hardAlpha" operator="arithmetic" k2="-1" k3="1"/>
<feColorMatrix type="matrix" values="0 0 0 0 0 0 0 0 0 0 0 0 0 0 0 0 0 0 0.15 0"/>
<feBlend mode="normal" in2="shape" result="effect2_innerShadow_2_22022"/>
</filter>
<radialGradient id="paint0_radial_2_22022" cx="0" cy="0" r="1" gradientUnits="userSpaceOnUse" gradientTransform="translate(11.6349 9.03423) rotate(55.3253) scale(31.3731)">
<stop stop-color="#40DDFF"/>
<stop offset="1" stop-color="#1363FF"/>
</radialGradient>
<radialGradient id="paint1_radial_2_22022" cx="0" cy="0" r="1" gradientUnits="userSpaceOnUse" gradientTransform="translate(15.3105 17.3396) rotate(55.3253) scale(3.13838)">
<stop stop-color="#40DDFF"/>
<stop offset="1" stop-color="#1363FF"/>
</radialGradient>
<radialGradient id="paint2_radial_2_22022" cx="0" cy="0" r="1" gradientUnits="userSpaceOnUse" gradientTransform="translate(20.1693 17.3396) rotate(55.3253) scale(3.13838)">
<stop stop-color="#40DDFF"/>
<stop offset="1" stop-color="#1363FF"/>
</radialGradient>
<radialGradient id="paint3_radial_2_22022" cx="0" cy="0" r="1" gradientUnits="userSpaceOnUse" gradientTransform="translate(25.2074 17.3396) rotate(55.3253) scale(3.13838)">
<stop stop-color="#40DDFF"/>
<stop offset="1" stop-color="#1363FF"/>
</radialGradient>
</defs>
</svg>
